<svg viewBox="0 0 48 48" xmlns="http://www.w3.org/2000/svg" xmlns:xlink="http://www.w3.org/1999/xlink" >
<defs>
 <path fill="#000000" id="i-418" d="M33,42c-2.43,0-4-1.57-4-4V15l-0.093-1H14v6h1c2.43,0,4,1.57,4,4v14c0,2.43-1.57,4-4,4h-1v6h20v-6H33z M32,46H16v-2.068 c2.99-0.423,5-2.744,5-5.932V24c0-3.189-2.01-5.51-5-5.932V16h11v22c0,3.188,2.011,5.509,5,5.932V46z M24,12c3.308,0,6-2.691,6-6 s-2.692-6-6-6c-3.309,0-6,2.691-6,6S20.691,12,24,12z M24,2c2.206,0,4,1.795,4,4s-1.794,4-4,4c-2.206,0-4-1.795-4-4S21.794,2,24,2z" /> 
</defs>

<use x="0" y="0" xlink:href="#i-418"/>

</svg>